# xmcd
#
# Track frame offsets:
#	150
#	11700
#	22437
#	34090
#	45645
#	58200
#	69245
#	80490
#	92347
#	104177
#	114752
#	127442
#	138375
#	148850
#
# Disc length: 2156 seconds
#
# Revision: 2
# Processed by: cddbd v1.5.2PL0 Copyright (c) Steve Scherf et al.
# Submitted via: audiograbber 1.83.01
#
DISCID=d0086a0e
DTITLE=Patsy Cline - Loved And Lost
DYEAR=1900
DGENRE=Oldies
TTITLE0=Walking After Midnight
TTITLE1=I Don't Wanta
TTITLE2=Let The Teardrops Fall
TTITLE3=I've Loved And Lost Again
TTITLE4=Fingerprints
TTITLE5=I Can't Forget
TTITLE6=Hungry For Love
TTITLE7=If I Could Only Stay Asleep
TTITLE8=Today, Tomorrow And Forever
TTITLE9=Hidin' Out
TTITLE10=Just A Closer Walk With Thee
TTITLE11=I Cried All The Way To The Altar
TTITLE12=Walking Dream
TTITLE13=Life's Railway To Heaven
EXTD=
EXTT0=
EXTT1=
EXTT2=
EXTT3=
EXTT4=
EXTT5=
EXTT6=
EXTT7=
EXTT8=
EXTT9=
EXTT10=
EXTT11=
EXTT12=
EXTT13=
PLAYORDER=
